<?xml version="1.0" encoding="UTF-8"?>
<svg id="Layer_1" xmlns="http://www.w3.org/2000/svg" viewBox="0 0 1608.2 373.07">
    <defs>
        <style>.cls-1{fill:#580084;stroke-width:0px;}</style>
    </defs>
    <path class="cls-1"
        d="m99.47,218.44c20.66,14.44,44.11,19.98,68.79,21.15,5.55.26,11.39-.43,16.74-1.94,9.12-2.58,11.25-10.05,5.1-17.33-2.95-3.49-6.69-6.63-10.66-8.89-9.54-5.42-19.16-10.86-29.22-15.18-37.9-16.28-41.34-54.09-26.11-83.45,4.42-8.51,11.87-14.26,20.19-18.85,28.15-15.53,69.64-11.87,92.74,8.24,8.46,7.36,14.25,16.68,19.04,26.66,1.87,3.9,3.38,7.99,5.34,11.84,2.75,5.39,5.76,10.64,8.42,15.5.48.14-.16.1-.64-.21-19.86-12.76-42.13-17.11-65.18-18.12-5.67-.25-11.67.85-17.09,2.63-7.2,2.37-9.03,8.51-4.78,14.76,2.19,3.22,5.07,6.46,8.4,8.34,12.89,7.28,26.04,14.07,39.17,20.93,13.98,7.3,23.06,18.53,26.59,33.84,5.26,22.79-1.4,57.8-36.21,69.33-29.46,9.76-57.55,7.71-82.76-11.88-4.89-3.8-8.51-9.29-12.52-14.16-1.57-1.91-2.63-4.24-3.91-6.39-7.29-12.21-9.72-27.23-21.31-36.96l-.12.12Z" />
    <path class="cls-1"
        d="m278.88,95.53c3.57.46,7.85.9,12.1,1.58,10.98,1.75,21.13-1.89,31.26-5.05,5.07-1.58,6.01-5.84,1.67-9.04-6.06-4.47-12.56-9.36-19.63-11.23-21.23-5.63-43.01-9.2-64.23-14.88-16.68-4.46-32.75-11.19-49.29-16.22-5.35-1.63-11.48-2.05-17.06-1.37-37.18,4.54-74.3,9.54-111.45,14.35-1.62.21-3.3.03-6.37.03,17.32-17.48,36.51-30.11,58.12-38.88,46.26-18.78,93.08-20.06,139.71-1.82,97.18,38.01,134.71,139.13,112.48,220.92-30.92-24.99-61.37-49.59-92.78-74.98,5.72,1.75,10,3.61,14.46,4.32,10.17,1.61,15.73-4.78,12.14-14.33-6.72-17.88-14.04-35.54-21.15-53.4Z" />
    <path class="cls-1"
        d="m1102.94,181.12c8.1-9.53,16.93-16.85,28.52-19.65,31.63-7.62,62.13,5.99,64.55,43.86,1.77,27.71.35,55.62.35,83.86h-39.03c0-1.79,0-3.57,0-5.34,0-21.51,0-43.02,0-64.53,0-1.5.06-3.02-.13-4.49-1.84-14.19-7.29-19.09-21.27-19.02-13.85.07-21.41,7.95-21.59,22.07-.27,21.34-.08,42.69-.08,64.03,0,2.32,0,4.64,0,7.32h-39.84c0-1.57,0-3.32,0-5.06,0-21.68.01-43.36,0-65.03,0-2.16.07-4.37-.28-6.48-2-12-8.11-17.12-20.07-16.98-12.52.15-19.99,6.06-21.83,17.47-.53,3.27-.84,6.6-.86,9.91-.07,20.18-.03,40.35-.03,60.53,0,1.8,0,3.6,0,5.7h-39.57v-127.14h39.16v19.12c8.95-14.2,20.26-21.97,36.56-21.84,16.13.14,27.64,7.1,35.45,21.69Z" />
    <path class="cls-1"
        d="m99.59,218.32c-1.51-.46-2.99-1.09-4.53-1.36-5.15-.9-10.35-2.5-15.47-2.28-5.24.23-7.88,4.84-7.07,10.14.27,1.8.82,3.58,1.47,5.28,4.36,11.53,8.65,23.09,13.25,34.52,2.29,5.67,5.21,11.09,8.01,16.96-1.73-.22-3.34-.36-4.92-.65-12.08-2.17-23.53.74-34.79,4.56-5.24,1.78-6.36,5.67-2.12,8.93,5.84,4.48,12.17,9.24,19.06,11.23,15.49,4.49,31.6,6.78,47.17,11.04,16.49,4.51,33.08,9.21,48.84,15.73,16.05,6.64,31.81,6.46,48.34,3.9,27.98-4.34,56.05-8.1,84.09-12.02,3.4-.48,6.88-.43,10.75-.65-43.61,44.14-131.49,69.86-210.81,28.66C11.79,306.07-12.31,210.31,5.45,143.37c1.59,1.1,3.08,1.99,4.41,3.07,27.61,22.29,55.21,44.61,82.82,66.91,2.2,1.78,4.51,3.41,6.78,5.1.01-.01.13-.13.13-.13Z" />
    <path class="cls-1"
        d="m420.05,249.57c11.46-6.66,22.52-13.07,33.43-19.41,3.84,4.55,7.18,9.41,11.4,13.33,12.98,12.09,28.26,14.63,44.89,9.3,7.87-2.52,13.25-7.97,14.29-16.35,1.01-8.12-2.28-15.02-9.41-19-9.11-5.09-18.57-9.6-28.09-13.88-12.61-5.67-25.37-11.08-35.59-20.73-17.91-16.91-22.21-37.83-15.64-60.75,6.41-22.37,23.08-33.93,45.33-37.38,21.23-3.29,41.7-1.27,58.52,14,5.47,4.96,9.74,11.24,15.07,17.52-11.51,7.42-22.18,14.29-32.98,21.25-1.89-2.67-3.44-5.23-5.34-7.49-7.39-8.85-16.72-12.17-28.06-9.53-6.92,1.61-11.77,5.73-13.49,12.56-1.9,7.6-.62,15.03,6.12,19.71,6.22,4.32,13.19,7.6,19.98,11.06,12.56,6.4,25.69,11.83,37.76,19.04,20.55,12.28,28.81,31.41,27.36,54.97-1.51,24.44-14.21,40.93-36.96,48.85-26.23,9.13-52.32,7.78-77.3-4.98-13.73-7.01-23.84-17.87-31.28-32.11Z" />
    <path class="cls-1"
        d="m575.66,162.02h39.3v18.94c2.05-2.64,3.34-4.45,4.78-6.14,14.43-16.87,42.13-20.78,62.5-8.37,20.75,12.64,29.37,32.26,30.39,55.75.78,17.85-3.52,34.29-14.6,48.62-14.9,19.26-41.17,26.63-63.2,17.86-7.65-3.04-13.67-8.05-19.35-14.56v78.71h-39.81v-190.81Zm95.72,63.91c.01-15.18-5.95-25.16-17.58-29.45-18.81-6.93-36.35,3.43-39.03,24.42-3.3,25.78,14.53,41.16,38.03,34.78,12.13-3.29,18.57-14.32,18.58-29.75Z" />
    <path class="cls-1"
        d="m856.74,237.75h-97.2c2,8.32,6.59,13.95,13.69,17.14,14.97,6.73,29.78,4.89,44.25-1.91,2.4-1.12,4.65-2.56,7.29-4.03,7.47,8.08,14.98,16.2,22.63,24.47-11.46,10.55-24.78,16.18-39.59,17.9-16.48,1.91-32.86,1.14-48.59-5.04-27.67-10.86-42.85-35.73-40.82-66.88,1.77-27.2,22.28-50.82,50.31-57.6,14.98-3.62,30.09-3.69,44.69,1.42,24.74,8.67,37.64,27.29,41.73,52.48,1.13,6.98,1.06,14.16,1.6,22.04Zm-97.27-23.25h55.61c.37-12.68-10.11-21.88-25.34-22.55-16.29-.71-29.58,9.07-30.27,22.55Z" />
    <path class="cls-1"
        d="m1285.24,213.79c.37-13.23-7.09-21.16-19.22-21.24-13.71-.1-18.81,1.71-31.07,11.25-7.32-7.77-14.68-15.59-22.15-23.51,11.95-12.78,26.73-19.25,43.7-20.4,12.42-.84,24.89-1.01,36.88,3.74,18.13,7.18,28.57,20.76,30.65,39.64,1.68,15.32,1.1,30.91,1.31,46.38.17,13.13.04,26.26.04,39.68h-39.76c.31-5.3.6-10.38.96-16.56-1.31,1.14-1.84,1.45-2.16,1.91-9.84,14.35-24.06,18.71-40.51,17.28-5.73-.5-11.61-1.5-16.98-3.47-18.17-6.65-24.23-22.18-23.11-39.36,1.64-25.23,20.66-32.51,38.35-34.18,12.39-1.18,24.93-.82,37.4-1.13,1.8-.04,3.61,0,5.68,0Zm-.37,23.81c-6.19,0-12.47-.12-18.75.04-4.96.12-10,.09-14.83,1.03-5.52,1.08-7.92,4.61-8.05,9.86-.14,5.77,1.89,9.94,7.4,10.83,6.57,1.06,13.61,1.42,20.11.26,11.54-2.07,16.07-9.76,14.12-22.02Z" />
    <path class="cls-1"
        d="m1330.87,161.81h18.47v-65.89h39.85v65.7h32.69v33.76h-32.61c0,5.87,0,11.14,0,16.42,0,10.33-.05,20.66.04,30.99.02,2.47.35,4.97.9,7.38,1.63,7.08,6.29,10.05,13.24,8.13,3.61-1,7-2.78,10.95-4.4,4.86,8.95,9.82,18.08,14.83,27.3-8.53,7.16-18.32,10.69-28.94,11.26-6.9.37-14.08.16-20.8-1.33-16.84-3.74-27.92-17.44-28.94-36.14-.96-17.6-.79-35.27-1.11-52.9-.04-1.96,0-3.93,0-6.33h-18.58v-33.94Z" />
    <path class="cls-1"
        d="m1579.98,207.69c-6.71-8.34-14.75-13.26-25.45-13.18-15.99.12-27.42,10.77-28.12,26.96-.22,5.09.03,10.42,1.31,15.31,5.32,20.32,29.66,27.49,46.95,14.07,1.96-1.52,3.78-3.24,6.12-5.25,8.91,7.82,17.83,15.65,26.98,23.69-10.6,12.07-23.13,19.62-38.59,21.79-20.58,2.89-40.2.47-57.5-12.09-16.83-12.22-25.22-29.04-26.33-49.73-1.97-36.74,22.31-64.65,58.94-69.23,25.12-3.14,47.66,2.63,63.92,24.72-9.36,7.61-18.73,15.22-28.22,22.93Z" />
    <path class="cls-1"
        d="m957.32,245.58c9.09,7.98,17.94,15.76,26.86,23.59-14.4,17.24-33.06,23.59-54.65,22.94-23.7-.72-43.73-9.17-56.98-29.44-24.61-37.67-7.5-93.31,44.62-101.93,17.58-2.91,34.99-2.14,50.45,8.08,6.28,4.15,11.64,9.69,18.07,15.14-10.29,8.39-19.54,15.93-27.85,22.72-6.27-3.85-11.67-8.66-17.98-10.77-20.45-6.85-38.45,8.56-37.15,31.07,1.05,18.22,9.59,28.22,26.1,30.54,8.8,1.24,17.72-2.44,28.51-11.93Z" />
    <path class="cls-1" d="m1434.32,289.19v-127.17h39.55v127.17h-39.55Z" />
    <path class="cls-1"
        d="m1479.27,115.03c0,14.41-10.84,25.41-25.09,25.47-14.35.06-25.73-11.22-25.71-25.49.02-13.95,11.37-25.6,25.47-25.17,16.69.52,25.6,12.59,25.33,25.18Z" />
</svg>