<?xml version="1.0" encoding="UTF-8"?>
<svg id="Layer_1" xmlns="http://www.w3.org/2000/svg" viewBox="0 0 3913.89 3920.83">
    <defs>
        <style>.cls-1{fill:#FFFFFF;stroke-width:0px;}</style>
    </defs>
    <path class="cls-1"
          d="m1045.42,2295.69c217.08,151.78,463.57,209.95,722.92,222.27,58.38,2.77,119.72-4.52,175.95-20.42,95.8-27.09,118.24-105.63,53.58-182.08-31.04-36.7-70.3-69.69-112.05-93.42-100.25-57-201.36-114.1-307.11-159.52-398.28-171.06-434.43-568.44-274.4-876.98,46.41-89.49,124.77-149.84,212.21-198.09,295.89-163.25,731.84-124.79,974.65,86.57,88.9,77.39,149.74,175.26,200.13,280.23,19.7,41.03,35.52,83.97,56.16,124.48,28.86,56.64,60.58,111.82,88.5,162.91,5.09,1.48-1.71,1.04-6.72-2.18-208.7-134.15-442.73-179.81-685.02-190.44-59.6-2.62-122.68,8.94-179.65,27.67-75.7,24.89-94.89,89.48-50.26,155.17,23.01,33.87,53.27,67.88,88.26,87.63,135.43,76.47,273.71,147.92,411.62,219.93,146.9,76.71,242.35,194.72,279.47,355.65,55.24,239.51-14.75,607.48-380.51,728.63-309.6,102.55-604.8,81-869.81-124.89-51.42-39.95-89.43-97.62-131.63-148.77-16.53-20.03-27.63-44.56-41.09-67.11-76.61-128.36-102.12-286.21-223.98-388.46l-1.22,1.22Z" />
    <path class="cls-1"
          d="m2930.93,1003.95c37.49,4.83,82.52,9.47,127.16,16.6,115.44,18.42,222.05-19.81,328.58-53.06,53.32-16.64,63.16-61.33,17.51-95-63.66-46.94-132.02-98.35-206.26-118.02-223.15-59.12-452.02-96.67-674.99-156.35-175.31-46.92-344.15-117.59-518.06-170.49-56.24-17.11-120.68-21.52-179.25-14.37-390.73,47.73-780.87,100.26-1171.26,150.8-17.06,2.21-34.65.28-66.96.28,181.99-183.72,383.75-316.4,610.87-408.61,486.16-197.38,978.19-210.83,1468.3-19.14,1021.28,399.45,1415.73,1462.16,1182.17,2321.76-324.95-262.6-644.96-521.2-975.09-787.98,60.07,18.39,105.05,37.91,151.95,45.36,106.84,16.96,165.34-50.19,127.59-150.59-70.66-187.9-147.51-373.47-222.26-561.19Z" />
    <path class="cls-1"
          d="m1046.64,2294.46c-15.86-4.86-31.41-11.43-47.62-14.28-54.1-9.5-108.81-26.28-162.58-23.97-55.09,2.37-82.77,50.87-74.33,106.53,2.86,18.88,8.64,37.62,15.43,55.54,45.87,121.16,90.86,242.69,139.29,362.83,24.03,59.61,54.75,116.52,84.14,178.21-18.16-2.34-35.1-3.8-51.76-6.79-126.95-22.8-247.3,7.82-365.58,47.95-55.08,18.69-66.85,59.57-22.26,93.81,61.33,47.11,127.95,97.08,200.34,118.07,162.76,47.2,332.1,71.31,495.71,116,173.35,47.36,347.65,96.81,513.26,165.36,168.68,69.82,334.33,67.91,508.04,40.97,294.05-45.61,589.04-85.13,883.76-126.33,35.76-5,72.28-4.51,113.02-6.82-458.37,463.94-1381.9,734.2-2215.58,301.22C123.9,3216.65-129.38,2210.25,57.24,1506.81c16.72,11.54,32.35,20.89,46.38,32.22,290.21,234.29,580.2,468.85,870.4,703.16,23.12,18.66,47.42,35.85,71.28,53.61.11-.12,1.33-1.34,1.33-1.34Z" />
</svg>